<?xml version="1.0" encoding="UTF-8"?><svg xmlns="http://www.w3.org/2000/svg" xmlns:xlink="http://www.w3.org/1999/xlink" viewBox="0 0 1046 1044"><defs><style>.v{fill:url(#q);}.v,.w,.x{stroke:#1d1d1b;stroke-miterlimit:10;stroke-width:2.64px;}.w{fill:url(#p);stroke-linecap:round;}.x{fill:#729ab7;}.y{fill:#fff;filter:url(#n);}</style><filter id="n" filterUnits="userSpaceOnUse"><feOffset dx="0" dy="16"/><feGaussianBlur result="o" stdDeviation="24"/><feFlood flood-color="#000" flood-opacity=".5"/><feComposite in2="o" operator="in"/><feComposite in="SourceGraphic"/></filter><linearGradient id="p" x1="392.26" y1="643.71" x2="756" y2="643.71" gradientTransform="matrix(1, 0, 0, 1, 0, 0)" gradientUnits="userSpaceOnUse"><stop offset=".3" stop-color="#fff"/><stop offset=".3" stop-color="#fff"/><stop offset=".51" stop-color="#fff"/><stop offset=".85" stop-color="#dbe7e5"/></linearGradient><linearGradient id="q" x1="262.91" y1="506.92" x2="450.76" y2="506.92" gradientTransform="matrix(1, 0, 0, 1, 0, 0)" gradientUnits="userSpaceOnUse"><stop offset=".08" stop-color="#d8e7f0"/><stop offset=".1" stop-color="#d0e1eb"/><stop offset=".23" stop-color="#aec7d8"/><stop offset=".36" stop-color="#94b3ca"/><stop offset=".49" stop-color="#81a5bf"/><stop offset=".63" stop-color="#759cb9"/><stop offset=".77" stop-color="#729ab7"/></linearGradient></defs><g id="a"><g id="b"/><g id="c"/><g id="d"/></g><g id="e"><g id="f"/></g><g id="g"><g id="h"/></g><g id="i"><g id="j"/></g><g id="k"/><g id="l"/><g id="m"><circle class="y" cx="526.16" cy="509.79" r="397.71"/><g><path class="x" d="M683.68,509.86l-368.46,.29,70.95,189.63h417.16l-119.66-189.92Z"/><path class="x" d="M813,604.15l-333.16,.66c-37.1,.09-71.07,6.45-88.31-26.44l-89.6-197.21c-15.91-30.32,6.07-66.66,40.29-66.66h348.68l122.11,289.64Z"/><polygon class="w" points="392.99 605.26 756 605.26 756 682.15 392.26 682.15 392.99 605.26"/><path class="v" d="M443.61,605.25c-1.08,.62-4.24,1.35-5.62,1.97-12.97,5.82-22.24,16.57-28.08,29.53-6.57,14.58-4.6,32.39,6.72,44.03,3.03,3.12,6.32,5.34,9.65,6.78l-27.28,10.04c-18.96,7.01-39.74-3.53-46.41-23.56l-85.46-257.67c-13.64-41.01,6.88-85.81,45.81-100.15,19.01-7.01,39.79,3.57,46.41,23.56,12.51,37.71,25.03,75.43,37.54,113.14,16.21,48.86,37.55,101.92,53.83,150.84,.16,.49-.23,1-.75,.96-1.72-.12-5.01-.25-6.36,.52Z"/></g></g><g id="r"/><g id="s"/><g id="t"/><g id="u"/></svg>