<?xml version="1.0" encoding="UTF-8"?><svg xmlns="http://www.w3.org/2000/svg" xmlns:xlink="http://www.w3.org/1999/xlink" viewBox="0 0 1046 1044"><defs><style>.v{fill:#9abfdf;stroke:#000;stroke-miterlimit:10;stroke-width:2.45px;}.w{fill:url(#p);}.x{fill:#fff;filter:url(#n);}.y{fill:url(#q);}</style><filter id="n" filterUnits="userSpaceOnUse"><feOffset dx="0" dy="16"/><feGaussianBlur result="o" stdDeviation="24"/><feFlood flood-color="#000" flood-opacity=".5"/><feComposite in2="o" operator="in"/><feComposite in="SourceGraphic"/></filter><linearGradient id="p" x1="506.26" y1="712.5" x2="716.58" y2="502.18" gradientTransform="matrix(1, 0, 0, 1, 0, 0)" gradientUnits="userSpaceOnUse"><stop offset="0" stop-color="#2dab66"/><stop offset="1" stop-color="#288e55"/></linearGradient><linearGradient id="q" x1="343.38" y1="349.18" x2="512.87" y2="518.66" xlink:href="#p"/></defs><g id="a"><g id="b"/><g id="c"/><g id="d"/></g><g id="e"><g id="f"/></g><g id="g"><g id="h"/></g><g id="i"><g id="j"/></g><g id="k"/><g id="l"/><g id="m"><circle class="x" cx="526.16" cy="509.79" r="397.71"/><g><circle class="v" cx="523.64" cy="510.22" r="254.35"/><path class="w" d="M645.75,685.42c-88.72-22.98-100.48-.32-135.27,4.53-72.06,10.02-53.14-92.25,28.94-139.17,65.21-37.27,129.63,20.66,191.04-14.39,62.68-35.85-26.83,164-84.71,149.03Z"/><path class="y" d="M537.05,469.6c-115.87-70.38-104.22,227.05-148.71,27.78-6.06-27.36-126.89,102.74-89.46-68.58,32.74-149.82,253.88-163.52,229.58-70.85-19.72,75.12,60.47,143.12,8.59,111.65Z"/></g></g><g id="r"/><g id="s"/><g id="t"/><g id="u"/></svg>